<svg width="36" height="36" viewBox="0 0 36 36" fill="none" xmlns="http://www.w3.org/2000/svg">
<path d="M20.5307 22.4691C20.6715 22.61 20.7507 22.8011 20.7507 23.0003C20.7507 23.1996 20.6715 23.3907 20.5307 23.5316C20.3898 23.6725 20.1987 23.7516 19.9994 23.7516C19.8001 23.7516 19.609 23.6725 19.4682 23.5316L14.4681 18.5316C14.3982 18.4619 14.3428 18.3791 14.3049 18.2879C14.267 18.1968 14.2476 18.099 14.2476 18.0003C14.2476 17.9016 14.267 17.8039 14.3049 17.7127C14.3428 17.6215 14.3982 17.5388 14.4681 17.4691L19.4682 12.4691C19.609 12.3282 19.8001 12.249 19.9994 12.249C20.1987 12.249 20.3898 12.3282 20.5307 12.4691C20.6715 12.61 20.7507 12.8011 20.7507 13.0003C20.7507 13.1996 20.6715 13.3907 20.5307 13.5316L16.0625 17.9997L20.5307 22.4691Z" fill="#A7A9B4"/>
</svg>
