<svg width="36" height="36" viewBox="0 0 36 36" fill="none" xmlns="http://www.w3.org/2000/svg">
<path d="M15.4693 22.4691C15.3285 22.61 15.2493 22.8011 15.2493 23.0003C15.2493 23.1996 15.3285 23.3907 15.4693 23.5316C15.6102 23.6725 15.8013 23.7516 16.0006 23.7516C16.1999 23.7516 16.391 23.6725 16.5318 23.5316L21.5319 18.5316C21.6018 18.4619 21.6572 18.3791 21.6951 18.2879C21.733 18.1968 21.7524 18.099 21.7524 18.0003C21.7524 17.9016 21.733 17.8039 21.6951 17.7127C21.6572 17.6215 21.6018 17.5388 21.5319 17.4691L16.5318 12.4691C16.391 12.3282 16.1999 12.249 16.0006 12.249C15.8013 12.249 15.6102 12.3282 15.4693 12.4691C15.3285 12.61 15.2493 12.8011 15.2493 13.0003C15.2493 13.1996 15.3285 13.3907 15.4693 13.5316L19.9375 17.9997L15.4693 22.4691Z" fill="#A7A9B4"/>
</svg>
