<svg width="38" height="38" viewBox="0 0 38 38" fill="none" xmlns="http://www.w3.org/2000/svg">
<path d="M11.0833 32.7147V30.0832C11.0833 29.2433 11.4169 28.4379 12.0108 27.844C12.6047 27.2501 13.4101 26.9165 14.25 26.9165H23.75C24.5898 26.9165 25.3953 27.2501 25.9891 27.844C26.583 28.4379 26.9166 29.2433 26.9166 30.0832V32.7147M34.8333 18.9998C34.8333 27.7443 27.7445 34.8332 19 34.8332C10.2555 34.8332 3.16663 27.7443 3.16663 18.9998C3.16663 10.2553 10.2555 3.1665 19 3.1665C27.7445 3.1665 34.8333 10.2553 34.8333 18.9998ZM23.75 15.8332C23.75 18.4565 21.6233 20.5832 19 20.5832C16.3766 20.5832 14.25 18.4565 14.25 15.8332C14.25 13.2098 16.3766 11.0832 19 11.0832C21.6233 11.0832 23.75 13.2098 23.75 15.8332Z" stroke="black" stroke-width="3" stroke-linecap="round" stroke-linejoin="round"/>
</svg>
