<svg width="19" height="19" viewBox="0 0 19 19" fill="none" xmlns="http://www.w3.org/2000/svg">
<g clip-path="url(#clip0_22_26)">
<path d="M5.3071 18.5001C5.72951 18.5001 6.02262 18.2871 6.54848 17.8447L9.52262 15.3294H15.0571C17.6261 15.3294 19.0054 13.9776 19.0054 11.5771V5.30122C19.0054 2.90067 17.6261 1.54883 15.0571 1.54883H3.95365C1.38468 1.54883 0.00537109 2.89248 0.00537109 5.30122V11.5771C0.00537109 13.9858 1.38468 15.3294 3.95365 15.3294H4.36745V17.4596C4.36745 18.0905 4.70365 18.5001 5.3071 18.5001ZM5.66055 17.0008V14.6248C5.66055 14.1824 5.47952 14.0104 5.01399 14.0104H3.95365C2.21227 14.0104 1.3933 13.1665 1.3933 11.5688V5.30122C1.3933 3.70358 2.21227 2.8679 3.95365 2.8679H15.0571C16.7899 2.8679 17.6175 3.70358 17.6175 5.30122V11.5688C17.6175 13.1665 16.7899 14.0104 15.0571 14.0104H9.47091C8.98811 14.0104 8.74675 14.0759 8.41917 14.3954L5.66055 17.0008ZM4.0571 9.38949H7.6088C7.88466 9.38949 8.10881 9.17653 8.10881 8.90611C8.10881 8.65218 7.88466 8.43915 7.6088 8.43915H4.0571C3.78123 8.43915 3.5571 8.65218 3.5571 8.90611C3.5571 9.17653 3.78123 9.38949 4.0571 9.38949ZM9.3933 9.38949H14.9709C15.2468 9.38949 15.4623 9.17653 15.4623 8.90611C15.4623 8.65218 15.2468 8.43915 14.9709 8.43915H9.3933C9.11743 8.43915 8.89329 8.65218 8.89329 8.90611C8.89329 9.17653 9.11743 9.38949 9.3933 9.38949ZM4.0571 11.5279H5.52262C5.79848 11.5279 6.014 11.3231 6.014 11.0609C6.014 10.7906 5.79848 10.5775 5.52262 10.5775H4.0571C3.78123 10.5775 3.5571 10.7906 3.5571 11.0609C3.5571 11.3231 3.78123 11.5279 4.0571 11.5279ZM7.29848 11.5279H11.6175C11.8933 11.5279 12.1174 11.3231 12.1174 11.0609C12.1174 10.7906 11.8933 10.5775 11.6175 10.5775H7.29848C7.02262 10.5775 6.8071 10.7906 6.8071 11.0609C6.8071 11.3231 7.02262 11.5279 7.29848 11.5279ZM13.4019 11.5279H14.9709C15.2468 11.5279 15.4623 11.3231 15.4623 11.0609C15.4623 10.7906 15.2468 10.5775 14.9709 10.5775H13.4019C13.126 10.5775 12.9019 10.7906 12.9019 11.0609C12.9019 11.3231 13.126 11.5279 13.4019 11.5279Z" fill="#A7A9B4"/>
</g>
<defs>
<clipPath id="clip0_22_26">
<rect width="19" height="18" fill="white" transform="translate(0.00537109 0.5)"/>
</clipPath>
</defs>
</svg>
