<svg width="20" height="18" viewBox="0 0 20 18" fill="none" xmlns="http://www.w3.org/2000/svg">
<g clip-path="url(#clip0_90_194)">
<path d="M6.11148 18.0001C6.5339 18.0001 6.827 17.7871 7.35286 17.3447L10.327 14.8294H15.8615C18.4304 14.8294 19.8098 13.4776 19.8098 11.0771V4.80122C19.8098 2.40067 18.4304 1.04883 15.8615 1.04883H4.75803C2.18907 1.04883 0.809753 2.39248 0.809753 4.80122V11.0771C0.809753 13.4858 2.18907 14.8294 4.75803 14.8294H5.17183V16.9596C5.17183 17.5905 5.50803 18.0001 6.11148 18.0001ZM6.46493 16.5008V14.1248C6.46493 13.6824 6.2839 13.5104 5.81838 13.5104H4.75803C3.01665 13.5104 2.19769 12.6665 2.19769 11.0688V4.80122C2.19769 3.20358 3.01665 2.3679 4.75803 2.3679H15.8615C17.5942 2.3679 18.4218 3.20358 18.4218 4.80122V11.0688C18.4218 12.6665 17.5942 13.5104 15.8615 13.5104H10.2753C9.79249 13.5104 9.55113 13.5759 9.22355 13.8954L6.46493 16.5008ZM4.86148 8.88949H8.41318C8.68904 8.88949 8.91319 8.67653 8.91319 8.40611C8.91319 8.15218 8.68904 7.93915 8.41318 7.93915H4.86148C4.58562 7.93915 4.36148 8.15218 4.36148 8.40611C4.36148 8.67653 4.58562 8.88949 4.86148 8.88949ZM10.1977 8.88949H15.7753C16.0512 8.88949 16.2667 8.67653 16.2667 8.40611C16.2667 8.15218 16.0512 7.93915 15.7753 7.93915H10.1977C9.92182 7.93915 9.69767 8.15218 9.69767 8.40611C9.69767 8.67653 9.92182 8.88949 10.1977 8.88949ZM4.86148 11.0279H6.327C6.60286 11.0279 6.81838 10.8231 6.81838 10.5609C6.81838 10.2906 6.60286 10.0775 6.327 10.0775H4.86148C4.58562 10.0775 4.36148 10.2906 4.36148 10.5609C4.36148 10.8231 4.58562 11.0279 4.86148 11.0279ZM8.10286 11.0279H12.4219C12.6977 11.0279 12.9218 10.8231 12.9218 10.5609C12.9218 10.2906 12.6977 10.0775 12.4219 10.0775H8.10286C7.827 10.0775 7.61148 10.2906 7.61148 10.5609C7.61148 10.8231 7.827 11.0279 8.10286 11.0279ZM14.2063 11.0279H15.7753C16.0512 11.0279 16.2667 10.8231 16.2667 10.5609C16.2667 10.2906 16.0512 10.0775 15.7753 10.0775H14.2063C13.9304 10.0775 13.7063 10.2906 13.7063 10.5609C13.7063 10.8231 13.9304 11.0279 14.2063 11.0279Z" fill="#474953"/>
</g>
<defs>
<clipPath id="clip0_90_194">
<rect width="19" height="18" fill="white" transform="translate(0.809753)"/>
</clipPath>
</defs>
</svg>
